<!DOCTYPE svg PUBLIC "-//W3C//DTD SVG 1.1//EN" "http://www.w3.org/Graphics/SVG/1.1/DTD/svg11.dtd">
<svg xmlns="http://www.w3.org/2000/svg" viewBox="0 0 271 243">
<path fill="#dff0f4" stroke="#dff0f4" d="M97.001 7.106C89.22 10.264 87 15.223 87 29.45V41H61V57.013l75.75-.257 75.75-.256.292-7.75.292-7.75H186V29.148c0-10.645-.229-12.189-2.25-15.158-5.299-7.786-3.382-7.466-46.072-7.694-23.993-.129-39.107.172-40.677.81M103 31.5V41h68V22h-68v9.5M36.5 42.399C28.019 45.081 23.972 48.242 20.367 55c-1.652 3.097-1.925 6.669-2.367 31-.555 30.55-.753 31.522-7.614 37.532l-3.462 3.031 4.383 4.574c6.206 6.477 6.693 9.325 6.693 39.124 0 29.392.707 33.446 6.913 39.652 4.671 4.671 11.177 7.05 21.337 7.8l7.75.573V202l-2.75-.006c-5.103-.01-10.232-2.037-12.009-4.745-1.508-2.298-1.808-6.201-2.241-29.201l-.5-26.548-2.81-4.78c-1.545-2.629-4.352-5.779-6.237-7-4.211-2.727-4.232-2.561.773-6.22 7.716-5.64 8.206-7.635 8.774-35.73l.5-24.729 2.616-2.614c1.896-1.894 4.096-2.793 8-3.27L53.5 56.5l.292-7.75.292-7.75-6.792.067c-3.736.037-8.592.636-10.792 1.332m182.706 6.22.294 7.881 5.05.616c11.232 1.371 11.645 2.474 12.367 33.051l.583 24.667 3 4.229c1.65 2.327 4.392 4.97 6.094 5.874l3.094 1.645-4.396 3.824c-8.001 6.96-7.733 5.791-8.293 36.092-.609 32.877-.89 33.651-12.871 35.365l-4.628.662V217.5l8.156-.162c12.343-.244 20.2-4.277 24.439-12.544 2.959-5.769 3.864-15.34 3.885-41.084.022-26.449.455-28.533 7.087-34.113l3.154-2.654-4.544-4.857c-5.596-5.983-5.535-5.625-6.015-35.586-.222-13.828-.858-25.447-1.5-27.413-3.462-10.592-13.356-17.082-27.271-17.887l-7.98-.462.295 7.881M80.415 117.388c-6.336 2.828-9.436 9.262-7.528 15.629 4.284 14.3 25.136 10.838 25.106-4.168-.016-8.565-9.79-14.937-17.578-11.461m51.62-.106c-9.51 3.342-10.874 18.647-2.068 23.201 10.348 5.351 21.983-3.528 19.024-14.518-.993-3.685-5.87-8.95-8.318-8.979-.645-.007-2.073-.218-3.173-.467-1.1-.25-3.559.094-5.465.763m51.965-.161C170.373 122.539 173.574 142 188.091 142c14.04 0 17.871-19.197 4.87-24.399-4.544-1.818-5.471-1.868-8.961-.48M61 211v9h152v-18H61v9" fill-rule="evenodd"/>
<path fill="#fbfbfc" stroke="#fbfbfc" d="M98.914 6.932C89.955 9.728 87 15.528 87 30.316V41H61v15h151V41h-25.837l-.331-12.25c-.37-13.644-1.696-16.978-8.161-20.515-3.468-1.898-73.157-3.05-78.757-1.303m3.753 14.735c-.367.366-.667 4.866-.667 10V41h69V21h-33.833c-18.609 0-34.134.3-34.5.667M37.153 42.464c-7.328 1.773-13.006 6.011-16.098 12.015-2.514 4.882-2.563 5.4-3.055 32.491-.545 30.011-.476 29.642-6.831 36.29l-3.594 3.759 3.109 2.839c6.66 6.084 6.763 6.63 7.339 39.142.57 32.133.91 34.157 6.78 40.342 4.87 5.131 15.006 8.658 24.881 8.658H53v-16l-3.75-.015c-4.66-.018-7.938-1.651-10.654-5.307-1.976-2.661-2.125-4.39-2.596-30.16l-.5-27.338-3.084-3.84c-1.696-2.112-4.492-4.74-6.212-5.84-3.955-2.53-3.945-2.646.436-5.005 8.163-4.396 8.791-6.699 9.397-34.418C36.705 59.493 37.685 57 49.047 57H53V41l-5.25.085c-2.888.047-7.656.667-10.597 1.379m183.052 6.137.295 7.899 4.586.528c10.89 1.253 11.893 4.025 11.93 32.972.024 18.623.272 22.036 1.849 25.509 1.7 3.742 7.222 9.548 10.288 10.817 1.052.436.976.794-.35 1.636-11.024 7.003-11.743 9.374-11.837 39.038-.052 16.162-.485 25.691-1.272 28-1.413 4.141-6.285 6.996-11.944 6.998L220 202v16.293l7.287-.616c13.322-1.126 20.802-5.157 24.861-13.4 2.27-4.611 2.369-5.817 2.854-34.777.55-32.911.392-32.048 7.128-39.052l3.897-4.052-3.005-2.222c-6.858-5.07-7.421-7.72-8.012-37.674-.501-25.38-.665-27.249-2.742-31.153-4.422-8.312-12.83-12.933-25.563-14.049l-6.794-.596.294 7.899M78.314 118.95c-5.676 3.461-7.284 10.339-3.933 16.819 6.163 11.918 25.094 5.268 23.291-8.181-1.189-8.858-11.472-13.446-19.358-8.638m51.485-.221c-6.672 4.138-7.651 13.881-1.966 19.565 10.214 10.215 26.35-2.371 19.65-15.327-2.897-5.602-11.977-7.778-17.684-4.238m52.297-.464c-8.655 4.448-8.654 17.809.003 22.286 6.432 3.326 14.788.357 17.542-6.235 4.498-10.763-7.131-21.403-17.545-16.051M61 211v9h151v-18H61v9" fill-rule="evenodd"/>
<path fill="#2c9bcb" stroke="#2c9bcb" d="M95.001 9.221c-6.111 4.118-7.411 7.688-7.459 20.477L87.5 41H61v15h151V41h-26V30.468c0-11.837-1.05-15.364-5.942-19.968l-3.187-3-39.239-.283-39.239-.282-3.392 2.286M102 31v10h69V21h-69v10M38.5 42.406c-9.467 2.339-14.483 6.133-17.849 13.499-1.917 4.194-2.153 7.037-2.713 32.595-.337 15.4-.686 28.132-.775 28.293-.09.161-2.249 2.523-4.799 5.249l-4.636 4.956 2.565 2.017c6.929 5.451 7.147 6.538 7.812 38.985.682 33.248 1.027 35.15 7.556 41.7 4.6 4.615 10.24 6.725 21.089 7.888l6.25.67V202h-3.953C37.33 202 36.603 200.079 36 167.5c-.569-30.743-.649-31.068-9.213-37.437l-4.621-3.436 2.667-1.38c9.805-5.072 10.583-7.612 11.167-36.425.595-29.343.591-29.334 10.831-31.82L53 55.505V41l-4.75.085c-2.612.047-7 .641-9.75 1.321m181.5 5.98v7.387l4.75.691C236.039 58.108 237 60.608 237 88.319c0 26.483 1.572 31.848 10.704 36.533l3.596 1.845-4.55 3.131c-8.884 6.113-9.75 9.477-9.75 37.9 0 31.026-.639 32.848-12 34.226l-4.5.546-.294 7.884-.295 7.884 6.295-.675c14.529-1.559 22.144-5.799 26.206-14.593 1.914-4.142 2.119-6.849 2.584-34 .554-32.448.672-33.085 7.27-39.248l2.969-2.774-4.042-4.384c-5.692-6.175-6.181-8.958-6.187-35.185-.006-25.151-.699-29.696-5.484-35.969C245.16 45.721 233.084 41 222.816 41H220v7.386M78.873 118.684c-6.559 4.07-7.884 12.956-2.797 18.75 9.2 10.478 25.941.117 20.573-12.732-2.806-6.715-11.765-9.749-17.776-6.018m52.157-.461c-9.646 5.1-8.647 19.05 1.625 22.682 11.946 4.224 21.685-10.107 13.177-19.391-3.871-4.224-10.323-5.659-14.802-3.291m50.733.342c-6.492 3.523-7.783 13.276-2.513 18.984 6.33 6.857 16.19 5.231 19.96-3.291 4.827-10.911-6.87-21.432-17.447-15.693M61 211v8h151v-16H61v8" fill-rule="evenodd"/>
<path fill="#255b92" stroke="#255b92" d="M42.209 42.021C21.68 45.012 18.021 52.612 18.008 92.29c-.009 24.121-.549 26.621-6.903 31.968l-2.982 2.509 2.536 2.367c6.99 6.521 6.78 5.458 7.456 37.866.648 31.118 1.103 34.284 5.888 41.004 3.294 4.627 11.602 8.089 20.943 8.73l8.054.552V203.227l-4.75-.691C36.744 200.861 36 198.747 36 167.728c0-28.425-.906-31.981-9.538-37.448-5.362-3.397-5.374-3.119.276-6.78 8.196-5.31 8.685-7.192 9.262-35.647.463-22.839.647-24.811 2.5-26.888C41 58.164 45.998 56 49.968 56H53V41l-2.75.125c-1.513.068-5.131.471-8.041.896M220 48.5V56l2.75.006c5.102.01 10.232 2.037 12.009 4.745 1.494 2.274 1.816 6.138 2.27 27.2.455 21.164.779 25.016 2.346 27.936 2.208 4.113 6.186 7.973 9.825 9.533l2.7 1.157-4.622 3.462c-9.691 7.257-10.175 9.162-10.234 40.31-.056 29.151-.654 30.676-12.671 32.324l-4.373.599V217h5.818c12.653 0 21.171-4.478 25.682-13.5l3-6 .5-29.5c.544-32.104.453-31.586 6.728-38.155l3.492-3.655-2.592-1.698c-6.663-4.366-7.077-6.317-7.64-35.992-.576-30.41-1.102-32.881-8.358-39.252C241.369 44.629 229.841 41 220.428 41c-.236 0-.428 3.375-.428 7.5M80.27 118.483c-6.738 2.929-9.144 11.436-4.983 17.619C81.661 145.575 97 141.175 97 129.874c0-9.658-8.073-15.155-16.73-11.391m51.029.141c-11.43 5.636-7.152 22.734 5.644 22.557 12.895-.178 16.432-17.784 4.567-22.741-4.353-1.819-6.217-1.785-10.211.184m50.716.57c-6.317 4.288-7.774 10.896-3.728 16.908 4.459 6.626 13.911 7.017 19.149.792 8.466-10.062-4.593-25.051-15.421-17.7" fill-rule="evenodd"/>
</svg>